#N canvas 0 25 960 1027 12;
#X obj 78 260 soundfiler;
#N canvas 0 22 450 278 (subpatch) 0;
#X array array_soundfile_left 3.21024e+06 float 2;
#X coords 0 1 3.21024e+06 -1 200 140 1;
#X restore 579 154 graph;
#N canvas 0 22 450 278 (subpatch) 0;
#X array array_soundfile_right 3.21024e+06 float 2;
#X coords 0 1 3.21024e+06 -1 200 140 1 0 0;
#X restore 805 154 graph;
#X obj 70 780 tabplay~ array_soundfile_left;
#X obj 290 780 tabplay~ array_soundfile_right;
#X msg 76 667 bang;
#X text 110 668 "bang" or 0 plays whole sample;
#X msg 91 703 stop;
#X text 127 704 stop playing (outputs zeros when stopped);
#X obj 270 807 bng 15 250 50 0 empty empty empty 17 7 0 10 -262144
-1 -1;
#X obj 497 807 bng 15 250 50 0 empty empty empty 17 7 0 10 -262144
-1 -1;
#X text 520 804 <= bang when finished playing the table;
#X obj 89 915 dac~;
#X floatatom 78 286 0 0 0 0 - - -;
#X text 76 329 Left outlet outputs the number of samples. Right outlet
outputs info as a list: samplerate \, headersize \, num channels \,
bytespersample \, & endianness ("b" or "l"). If no array name is given
\, no samples are read but the info is provided anyway., f 68;
#X obj 87 617 sel play stop;
#X obj 87 593 r playback_command;
#X obj 77 201 r openfile;
#X obj 175 287 print soundfiler;
#X msg 77 228 read -resize \$1 array_soundfile_left array_soundfile_right
;
#X connect 0 0 13 0;
#X connect 0 1 18 0;
#X connect 3 0 12 0;
#X connect 3 1 9 0;
#X connect 4 0 12 1;
#X connect 4 1 10 0;
#X connect 5 0 3 0;
#X connect 5 0 4 0;
#X connect 7 0 3 0;
#X connect 7 0 4 0;
#X connect 15 0 5 0;
#X connect 15 1 7 0;
#X connect 16 0 15 0;
#X connect 17 0 19 0;
#X connect 19 0 0 0;
