#N canvas 1236 466 550 489 10;
#X obj 30 30 adc~;
#X obj 30 110 send micVolume;
#X floatatom 130 110 5 0 0 0 - - - 0;
#X obj 30 70 env~ 16384 8192;
#X obj 137 47 loadbang;
#X msg 137 69 0.123457;
#X connect 0 0 3 0;
#X connect 3 0 1 0;
#X connect 3 0 2 0;
#X connect 4 0 5 0;
#X connect 5 0 1 0;
